<svg xmlns="http://www.w3.org/2000/svg"><symbol viewBox="0 0 1024 1024" id="author"><title>author</title><path fill="#333333" d="M514.966069 48.492874c167.229793 0 250.985931 139.264 250.985931 302.491954 0 297.97223-177.540414 302.539034-188.36892 302.539034-0.329563 0-0.517885 0-0.517885 0s148.115126 34.557057 238.886253 68.172506c90.771126 33.615448 95.526253 128.717977 95.526253 167.135632 0 38.417655 0 86.439724 0 86.439724L514.966069 975.271724 507.668598 975.271724 111.156966 975.271724c0 0 0-48.022069 0-86.439724 0-38.417655 4.755126-133.520184 95.573333-167.135632 90.771126-33.615448 238.886253-68.172506 238.886253-68.172506s-0.188322 0-0.517885 0c-10.875586 0-188.36892-4.566805-188.36892-302.539034 0-163.275034 83.756138-302.491954 250.985931-302.491954L514.966069 48.492874M514.966069 1.412414 507.668598 1.412414c-178.293701 0-298.066391 140.488092-298.066391 349.572414 0 155.553839 45.715126 241.899402 96.891586 289.82731-39.453425 11.110989-81.543356 23.916874-116.194575 36.722759-47.174621 17.466851-126.269793 68.125425-126.269793 211.250023l0 86.439724 0 47.08046 47.08046 0 396.511632 0 7.297471 0 396.511632 0 47.08046 0 0-47.08046 0-86.439724c0-143.124598-79.142253-193.783172-126.269793-211.250023-34.651218-12.852966-76.78823-25.658851-116.288736-36.769839 51.317701-47.927908 97.032828-134.273471 97.032828-289.78023C813.03246 141.900506 693.25977 1.412414 514.966069 1.412414L514.966069 1.412414z"/></symbol><symbol viewBox="0 0 1024 1024" id="backend"><title>backend</title><path fill="#333333" d="M313.901223 745.885841l-65.467037 65.494667 312.488037 0-65.470107-65.494667L313.901223 745.885841 313.901223 745.885841M744.493122 707.170075 64.86124 707.170075 64.86124 211.717959l679.628812 0L744.493122 707.170075 744.493122 707.170075 744.493122 707.170075M679.026084 641.675408 679.026084 277.218766 130.328277 277.218766l0.00307 364.456642L679.026084 641.675408 679.026084 641.675408 679.026084 641.675408M806.330492 809.210076 958.279183 809.210076 958.279183 211.717959 806.330492 211.717959 806.330492 809.210076 806.330492 809.210076M900.213719 642.042775c0 9.898441-8.019651 17.918092-17.915022 17.918092-9.886161 0-17.902742-8.019651-17.902742-17.918092 0-9.895371 8.016581-17.915022 17.902742-17.915022C892.194068 624.127753 900.213719 632.147404 900.213719 642.042775L900.213719 642.042775M898.582569 407.170466l0 165.784814-32.56058 0L866.021989 407.170466 898.582569 407.170466 898.582569 407.170466 898.582569 407.170466M898.582569 407.170466"/></symbol><symbol viewBox="0 0 1024 1024" id="comment"><title>comment</title><path fill="#333333" d="M512 65.536C230.4 65.536 1.024 257.024 1.024 492.544c0 99.328 39.936 190.464 108.544 263.168l0 0c0 0-5.12 180.224-43.008 203.776 0 0 138.24 0 226.304-79.872 66.56 26.624 140.288 40.96 219.136 40.96 281.6 0 510.976-191.488 510.976-427.008C1022.976 257.024 793.6 65.536 512 65.536zM512 878.592c-71.68 0-140.288-13.312-203.776-37.888-5.12-2.048-10.24-3.072-15.36-3.072-10.24 0-19.456 4.096-27.648 10.24-38.912 35.84-91.136 53.248-132.096 61.44 4.096-16.384 7.168-34.816 9.216-56.32 5.12-40.96 7.168-78.848 7.168-92.16 2.048-12.288-2.048-24.576-10.24-33.792-63.488-67.584-97.28-149.504-97.28-234.496 0-212.992 210.944-386.048 470.016-386.048s470.016 173.056 470.016 386.048C982.016 705.536 771.072 878.592 512 878.592zM321.536 512m-55.296 0a5.4 5.4 0 1 0 110.592 0 5.4 5.4 0 1 0-110.592 0ZM527.36 512m-55.296 0a5.4 5.4 0 1 0 110.592 0 5.4 5.4 0 1 0-110.592 0ZM733.184 512m-55.296 0a5.4 5.4 0 1 0 110.592 0 5.4 5.4 0 1 0-110.592 0Z"/></symbol><symbol viewBox="0 0 1024 1024" id="date"><title>date</title><path fill="#333333" d="M883.2 76.8 716.8 76.8 716.8 38.4c0-21.2-17.2-38.4-38.4-38.4C657.2 0 640 17.2 640 38.4l0 38.4L384 76.8 384 38.4C384 17.2 366.8 0 345.6 0c-21.2 0-38.4 17.2-38.4 38.4l0 38.4L140.8 76.8C63.2 76.8 0 140 0 217.6l0 64 0 76.8 0 524.8C0 960.8 63.2 1024 140.8 1024l742.4 0c77.6 0 140.8-63.2 140.8-140.8L1024 358.4l0-76.8 0-64C1024 140 960.8 76.8 883.2 76.8zM947.2 883.2c0 35.3-28.7 64-64 64L140.8 947.2c-35.3 0-64-28.7-64-64L76.8 358.4l870.4 0L947.2 883.2zM76.8 281.6l0-64c0-35.3 28.7-64 64-64l166.4 0L307.2 192c0 21.2 17.2 38.4 38.4 38.4 21.2 0 38.4-17.2 38.4-38.4l0-38.4 256 0L640 192c0 21.2 17.2 38.4 38.4 38.4 21.2 0 38.4-17.2 38.4-38.4l0-38.4 166.4 0c35.3 0 64 28.7 64 64l0 64L76.8 281.6zM256 614.4c42.3 0 76.8-34.5 76.8-76.8s-34.5-76.8-76.8-76.8-76.8 34.5-76.8 76.8S213.7 614.4 256 614.4zM256 512c14.1 0 25.6 11.5 25.6 25.6 0 14.1-11.5 25.6-25.6 25.6s-25.6-11.5-25.6-25.6C230.4 523.5 241.9 512 256 512zM512 614.4c42.3 0 76.8-34.5 76.8-76.8s-34.5-76.8-76.8-76.8-76.8 34.5-76.8 76.8S469.7 614.4 512 614.4zM512 512c14.1 0 25.6 11.5 25.6 25.6 0 14.1-11.5 25.6-25.6 25.6-14.1 0-25.6-11.5-25.6-25.6C486.4 523.5 497.9 512 512 512zM768 614.4c42.3 0 76.8-34.5 76.8-76.8s-34.5-76.8-76.8-76.8-76.8 34.5-76.8 76.8S725.7 614.4 768 614.4zM768 512c14.1 0 25.6 11.5 25.6 25.6 0 14.1-11.5 25.6-25.6 25.6s-25.6-11.5-25.6-25.6C742.4 523.5 753.9 512 768 512zM256 844.8c42.3 0 76.8-34.5 76.8-76.8s-34.5-76.8-76.8-76.8-76.8 34.5-76.8 76.8S213.7 844.8 256 844.8zM256 742.4c14.1 0 25.6 11.5 25.6 25.6 0 14.1-11.5 25.6-25.6 25.6s-25.6-11.5-25.6-25.6C230.4 753.9 241.9 742.4 256 742.4zM512 844.8c42.3 0 76.8-34.5 76.8-76.8s-34.5-76.8-76.8-76.8-76.8 34.5-76.8 76.8S469.7 844.8 512 844.8zM512 742.4c14.1 0 25.6 11.5 25.6 25.6 0 14.1-11.5 25.6-25.6 25.6-14.1 0-25.6-11.5-25.6-25.6C486.4 753.9 497.9 742.4 512 742.4zM768 844.8c42.3 0 76.8-34.5 76.8-76.8s-34.5-76.8-76.8-76.8-76.8 34.5-76.8 76.8S725.7 844.8 768 844.8zM768 742.4c14.1 0 25.6 11.5 25.6 25.6 0 14.1-11.5 25.6-25.6 25.6s-25.6-11.5-25.6-25.6C742.4 753.9 753.9 742.4 768 742.4z"/></symbol><symbol viewBox="0 0 1024 1024" id="frontend"><title>frontend</title><path fill="#333333" d="M68.583005 52.543703l909.677255 0L903.8352 874.742605 518.191003 987.490481 151.372569 874.742605 68.583005 52.543703zM796.937564 300.988122l22.01234-124.715443-585.822332-0.98749 37.705763 374.170888 381.50083 0 0 97.79328-127.875412 42.886763-133.104507-44.886303-8.365528-52.881394-104.800881 0.98749 15.717983 131.724067 224.286206 74.818009 235.808634-70.845535 30.377868-301.325813L369.366466 427.726641l-10.487865-126.738519L796.937564 300.988122 796.937564 300.988122zM796.937564 300.988122"/></symbol><symbol viewBox="0 0 1026 1024" id="http"><title>http</title><path fill="#333333" d="M1024 657.408c0-81.92-56.832-151.04-133.12-169.472C887.808 359.424 782.336 256 653.312 256c-75.776 0-143.36 35.328-186.88 90.624-24.576-31.744-62.464-51.712-105.472-51.712-73.728 0-133.632 59.904-133.632 133.632 0 6.656 0.512 12.8 1.536 18.944-11.264-2.048-22.528-3.072-34.816-3.072C87.04 444.416 0 530.944 0 637.952c0 107.008 86.528 194.048 193.536 194.048L849.92 832C946.176 832 1024 753.664 1024 657.408L1024 657.408zM370.688 704.512l-34.816 0 0-75.264L267.776 629.248l0 75.264-34.816 0L232.96 532.48l34.816 0 0 67.584 68.096 0L335.872 532.48l34.816 0L370.688 704.512zM530.944 561.664l-51.2 0 0 143.36L445.44 705.024l0-143.36L394.24 561.664 394.24 532.48l136.704 0L530.944 561.664zM677.888 561.664l-51.2 0 0 143.36-34.816 0 0-143.36-51.2 0L540.672 532.48l136.704 0L677.376 561.664zM826.88 612.352c-4.096 7.168-8.704 12.8-14.848 16.896-6.144 4.096-11.776 6.656-17.92 8.192-8.192 1.536-20.48 2.56-35.84 2.56l-22.528 0 0 65.024-34.816 0L700.928 532.48l55.808 0c20.992 0 34.816 1.024 41.472 2.56 9.728 2.56 17.92 8.192 24.576 16.896 6.656 8.704 10.24 19.968 10.24 33.792C832.512 595.968 830.464 605.184 826.88 612.352zM777.216 562.688c-4.096-1.024-12.288-1.024-25.088-1.024l-16.896 0 0 48.64 18.944 0c13.824 0 23.04-1.024 27.648-2.56s8.192-4.608 10.752-8.704 4.096-8.192 4.096-13.312c0-6.144-2.048-11.264-5.632-15.36C787.456 566.272 782.848 563.712 777.216 562.688z"/></symbol><symbol viewBox="0 0 1024 1024" id="music"><title>music</title><path fill="#333333" d="M899.904 454.976c-5.44-0.704-10.304-4.48-14.592-11.2-4.288-6.72-7.552-19.008-9.92-36.992-3.904-29.12-13.824-50.624-29.76-64.448-15.936-13.824-40.64-23.744-74.112-29.696-35.008-6.784-65.92-20.352-92.736-40.96-26.816-20.48-49.216-39.808-67.072-57.664C594.56 198.272 581.376 192.704 572.032 197.184S558.016 209.92 558.016 221.888L558.016 270.08l0 105.408c0 41.856-0.192 87.04-0.576 135.616s-0.576 94.464-0.576 137.792l0 114.368 0 63.872c0.768 17.92-2.112 37.952-8.768 59.904-6.592 22.08-19.072 42.816-37.312 62.272-18.304 19.456-42.56 36.032-72.896 49.92-30.336 13.824-68.096 21.824-113.216 24.128-45.888 2.24-87.296-5.632-124.288-23.552-36.928-17.92-65.536-40.576-85.76-67.776-20.224-27.328-30.144-57.216-29.76-89.664 0.384-32.512 14.976-62.976 43.776-91.328 28.8-28.416 59.904-48.192 93.376-59.392 33.408-11.2 65.728-17.408 96.832-18.496 31.104-1.152 58.944 0.896 83.456 6.144s42.56 10.112 54.272 14.592L456.576 376.512c0-88.192 0.384-187.584 1.152-298.176 0-21.696 5.824-39.424 17.536-53.248C486.848 11.328 502.4 3.264 521.856 1.024 538.176-1.216 551.616 1.92 562.112 10.56c10.496 8.576 21.184 20.544 32.064 35.84 10.88 15.36 24.32 32.704 40.256 52.096 15.936 19.456 37.504 38.528 64.768 57.152 23.36 17.216 43.776 29.504 61.248 36.992s33.856 14.4 49.024 20.736c15.168 6.336 30.144 14.016 44.928 22.976 14.784 8.96 31.104 23.552 49.024 43.712 17.856 19.392 28.8 39.616 32.704 60.544s4.096 40 0.576 57.152-9.152 31.168-16.896 42.048C911.936 450.688 905.344 455.744 899.904 454.976L899.904 454.976z"/></symbol><symbol viewBox="0 0 1024 1024" id="other"><title>other</title><path fill="#333333" d="M341.314 60.187h-135.546c-74.869 0-146.838 49.386-146.838 124.245v135.546c0 74.869 71.975 146.838 146.838 146.838h135.546c136.995 0 124.245-4.199 124.245-146.838v-135.546c0-74.869-49.386-124.245-124.245-124.245M420.382 304.91c0 110.962 12.4 116.726-94.135 116.726h-105.408c-58.238 0-116.726-58.494-116.726-116.726v-105.428c0-58.218 58.494-94.117 116.726-94.117h105.408c58.238 0 94.135 35.898 94.135 94.135v105.408zM341.314 557.187h-135.546c-74.869 0-146.838 49.398-146.838 124.245v135.546c0 74.845 71.975 146.838 146.838 146.838h135.546c74.869 0 124.245-71.994 124.245-146.838v-135.546c0-131.325 7.095-124.245-124.245-124.245M420.382 801.907c0 58.218-35.898 116.726-94.135 116.726h-105.408c-58.238 0-116.726-58.511-116.726-116.726v-105.428c0-58.218 58.494-94.117 116.726-94.117h105.408c102.156 0 94.135-7.995 94.135 94.117v105.428zM838.308 60.187h-135.546c-74.869 0-146.838 49.398-146.838 124.245v135.546c0 136.995 9.851 146.838 146.838 146.838h135.546c74.869 0 124.245-71.975 124.245-146.838v-135.546c0-74.845-49.386-124.245-124.245-124.245M917.381 304.938c0 58.218-35.898 116.688-94.135 116.688h-105.408c-106.558 0.005-116.726-10.121-116.726-116.688v-105.428c0-58.218 58.494-94.164 116.726-94.164h105.408c58.238 0 94.135 35.94 94.135 94.164v105.428zM838.308 557.187h-135.546c-136.995 0-146.838-12.72-146.838 124.245v135.546c0 74.845 71.975 146.838 146.838 146.838h135.546c74.869 0 124.245-71.994 124.245-146.838v-135.546c0-74.845-49.386-124.245-124.245-124.245M917.381 801.907c0 58.218-35.898 116.726-94.135 116.726h-105.408c-58.238 0-116.726-58.511-116.726-116.726v-105.428c0-106.541 10.162-94.117 116.726-94.117h105.408c58.238 0 94.135 35.898 94.135 94.117v105.428z"/></symbol><symbol viewBox="0 0 1024 1024" id="test"><title>test</title><path fill="#333333" d="M341.314 60.187h-135.546c-74.869 0-146.838 49.386-146.838 124.245v135.546c0 74.869 71.975 146.838 146.838 146.838h135.546c136.995 0 124.245-4.199 124.245-146.838v-135.546c0-74.869-49.386-124.245-124.245-124.245M420.382 304.91c0 110.962 12.4 116.726-94.135 116.726h-105.408c-58.238 0-116.726-58.494-116.726-116.726v-105.428c0-58.218 58.494-94.117 116.726-94.117h105.408c58.238 0 94.135 35.898 94.135 94.135v105.408zM341.314 557.187h-135.546c-74.869 0-146.838 49.398-146.838 124.245v135.546c0 74.845 71.975 146.838 146.838 146.838h135.546c74.869 0 124.245-71.994 124.245-146.838v-135.546c0-131.325 7.095-124.245-124.245-124.245M420.382 801.907c0 58.218-35.898 116.726-94.135 116.726h-105.408c-58.238 0-116.726-58.511-116.726-116.726v-105.428c0-58.218 58.494-94.117 116.726-94.117h105.408c102.156 0 94.135-7.995 94.135 94.117v105.428zM838.308 60.187h-135.546c-74.869 0-146.838 49.398-146.838 124.245v135.546c0 136.995 9.851 146.838 146.838 146.838h135.546c74.869 0 124.245-71.975 124.245-146.838v-135.546c0-74.845-49.386-124.245-124.245-124.245M917.381 304.938c0 58.218-35.898 116.688-94.135 116.688h-105.408c-106.558 0.005-116.726-10.121-116.726-116.688v-105.428c0-58.218 58.494-94.164 116.726-94.164h105.408c58.238 0 94.135 35.94 94.135 94.164v105.428zM838.308 557.187h-135.546c-136.995 0-146.838-12.72-146.838 124.245v135.546c0 74.845 71.975 146.838 146.838 146.838h135.546c74.869 0 124.245-71.994 124.245-146.838v-135.546c0-74.845-49.386-124.245-124.245-124.245M917.381 801.907c0 58.218-35.898 116.726-94.135 116.726h-105.408c-58.238 0-116.726-58.511-116.726-116.726v-105.428c0-106.541 10.162-94.117 116.726-94.117h105.408c58.238 0 94.135 35.898 94.135 94.117v105.428z"/></symbol></svg>