<?xml version="1.0" standalone="no"?><!DOCTYPE svg PUBLIC "-//W3C//DTD SVG 1.1//EN" "http://www.w3.org/Graphics/SVG/1.1/DTD/svg11.dtd"><svg class="icon" width="200px" height="200.00px" viewBox="0 0 1024 1024" version="1.1" xmlns="http://www.w3.org/2000/svg"><path fill="#333333" d="M514.966069 48.492874c167.229793 0 250.985931 139.264 250.985931 302.491954 0 297.97223-177.540414 302.539034-188.36892 302.539034-0.329563 0-0.517885 0-0.517885 0s148.115126 34.557057 238.886253 68.172506c90.771126 33.615448 95.526253 128.717977 95.526253 167.135632 0 38.417655 0 86.439724 0 86.439724L514.966069 975.271724 507.668598 975.271724 111.156966 975.271724c0 0 0-48.022069 0-86.439724 0-38.417655 4.755126-133.520184 95.573333-167.135632 90.771126-33.615448 238.886253-68.172506 238.886253-68.172506s-0.188322 0-0.517885 0c-10.875586 0-188.36892-4.566805-188.36892-302.539034 0-163.275034 83.756138-302.491954 250.985931-302.491954L514.966069 48.492874M514.966069 1.412414 507.668598 1.412414c-178.293701 0-298.066391 140.488092-298.066391 349.572414 0 155.553839 45.715126 241.899402 96.891586 289.82731-39.453425 11.110989-81.543356 23.916874-116.194575 36.722759-47.174621 17.466851-126.269793 68.125425-126.269793 211.250023l0 86.439724 0 47.08046 47.08046 0 396.511632 0 7.297471 0 396.511632 0 47.08046 0 0-47.08046 0-86.439724c0-143.124598-79.142253-193.783172-126.269793-211.250023-34.651218-12.852966-76.78823-25.658851-116.288736-36.769839 51.317701-47.927908 97.032828-134.273471 97.032828-289.78023C813.03246 141.900506 693.25977 1.412414 514.966069 1.412414L514.966069 1.412414z" /></svg>