<?xml version="1.0" standalone="no"?><!DOCTYPE svg PUBLIC "-//W3C//DTD SVG 1.1//EN" "http://www.w3.org/Graphics/SVG/1.1/DTD/svg11.dtd"><svg class="icon" width="200px" height="200.00px" viewBox="0 0 1024 1024" version="1.1" xmlns="http://www.w3.org/2000/svg"><path fill="#333333" d="M313.901223 745.885841l-65.467037 65.494667 312.488037 0-65.470107-65.494667L313.901223 745.885841 313.901223 745.885841M744.493122 707.170075 64.86124 707.170075 64.86124 211.717959l679.628812 0L744.493122 707.170075 744.493122 707.170075 744.493122 707.170075M679.026084 641.675408 679.026084 277.218766 130.328277 277.218766l0.00307 364.456642L679.026084 641.675408 679.026084 641.675408 679.026084 641.675408M806.330492 809.210076 958.279183 809.210076 958.279183 211.717959 806.330492 211.717959 806.330492 809.210076 806.330492 809.210076M900.213719 642.042775c0 9.898441-8.019651 17.918092-17.915022 17.918092-9.886161 0-17.902742-8.019651-17.902742-17.918092 0-9.895371 8.016581-17.915022 17.902742-17.915022C892.194068 624.127753 900.213719 632.147404 900.213719 642.042775L900.213719 642.042775M898.582569 407.170466l0 165.784814-32.56058 0L866.021989 407.170466 898.582569 407.170466 898.582569 407.170466 898.582569 407.170466M898.582569 407.170466" /></svg>