<?xml version="1.0" standalone="no"?><!DOCTYPE svg PUBLIC "-//W3C//DTD SVG 1.1//EN" "http://www.w3.org/Graphics/SVG/1.1/DTD/svg11.dtd"><svg class="icon" width="200px" height="200.00px" viewBox="0 0 1024 1024" version="1.1" xmlns="http://www.w3.org/2000/svg"><path fill="#333333" d="M883.2 76.8 716.8 76.8 716.8 38.4c0-21.2-17.2-38.4-38.4-38.4C657.2 0 640 17.2 640 38.4l0 38.4L384 76.8 384 38.4C384 17.2 366.8 0 345.6 0c-21.2 0-38.4 17.2-38.4 38.4l0 38.4L140.8 76.8C63.2 76.8 0 140 0 217.6l0 64 0 76.8 0 524.8C0 960.8 63.2 1024 140.8 1024l742.4 0c77.6 0 140.8-63.2 140.8-140.8L1024 358.4l0-76.8 0-64C1024 140 960.8 76.8 883.2 76.8zM947.2 883.2c0 35.3-28.7 64-64 64L140.8 947.2c-35.3 0-64-28.7-64-64L76.8 358.4l870.4 0L947.2 883.2zM76.8 281.6l0-64c0-35.3 28.7-64 64-64l166.4 0L307.2 192c0 21.2 17.2 38.4 38.4 38.4 21.2 0 38.4-17.2 38.4-38.4l0-38.4 256 0L640 192c0 21.2 17.2 38.4 38.4 38.4 21.2 0 38.4-17.2 38.4-38.4l0-38.4 166.4 0c35.3 0 64 28.7 64 64l0 64L76.8 281.6zM256 614.4c42.3 0 76.8-34.5 76.8-76.8s-34.5-76.8-76.8-76.8-76.8 34.5-76.8 76.8S213.7 614.4 256 614.4zM256 512c14.1 0 25.6 11.5 25.6 25.6 0 14.1-11.5 25.6-25.6 25.6s-25.6-11.5-25.6-25.6C230.4 523.5 241.9 512 256 512zM512 614.4c42.3 0 76.8-34.5 76.8-76.8s-34.5-76.8-76.8-76.8-76.8 34.5-76.8 76.8S469.7 614.4 512 614.4zM512 512c14.1 0 25.6 11.5 25.6 25.6 0 14.1-11.5 25.6-25.6 25.6-14.1 0-25.6-11.5-25.6-25.6C486.4 523.5 497.9 512 512 512zM768 614.4c42.3 0 76.8-34.5 76.8-76.8s-34.5-76.8-76.8-76.8-76.8 34.5-76.8 76.8S725.7 614.4 768 614.4zM768 512c14.1 0 25.6 11.5 25.6 25.6 0 14.1-11.5 25.6-25.6 25.6s-25.6-11.5-25.6-25.6C742.4 523.5 753.9 512 768 512zM256 844.8c42.3 0 76.8-34.5 76.8-76.8s-34.5-76.8-76.8-76.8-76.8 34.5-76.8 76.8S213.7 844.8 256 844.8zM256 742.4c14.1 0 25.6 11.5 25.6 25.6 0 14.1-11.5 25.6-25.6 25.6s-25.6-11.5-25.6-25.6C230.4 753.9 241.9 742.4 256 742.4zM512 844.8c42.3 0 76.8-34.5 76.8-76.8s-34.5-76.8-76.8-76.8-76.8 34.5-76.8 76.8S469.7 844.8 512 844.8zM512 742.4c14.1 0 25.6 11.5 25.6 25.6 0 14.1-11.5 25.6-25.6 25.6-14.1 0-25.6-11.5-25.6-25.6C486.4 753.9 497.9 742.4 512 742.4zM768 844.8c42.3 0 76.8-34.5 76.8-76.8s-34.5-76.8-76.8-76.8-76.8 34.5-76.8 76.8S725.7 844.8 768 844.8zM768 742.4c14.1 0 25.6 11.5 25.6 25.6 0 14.1-11.5 25.6-25.6 25.6s-25.6-11.5-25.6-25.6C742.4 753.9 753.9 742.4 768 742.4z" /></svg>