<?xml version="1.0" standalone="no"?><!DOCTYPE svg PUBLIC "-//W3C//DTD SVG 1.1//EN" "http://www.w3.org/Graphics/SVG/1.1/DTD/svg11.dtd"><svg class="icon" width="200px" height="199.61px" viewBox="0 0 1026 1024" version="1.1" xmlns="http://www.w3.org/2000/svg"><path fill="#333333" d="M1024 657.408c0-81.92-56.832-151.04-133.12-169.472C887.808 359.424 782.336 256 653.312 256c-75.776 0-143.36 35.328-186.88 90.624-24.576-31.744-62.464-51.712-105.472-51.712-73.728 0-133.632 59.904-133.632 133.632 0 6.656 0.512 12.8 1.536 18.944-11.264-2.048-22.528-3.072-34.816-3.072C87.04 444.416 0 530.944 0 637.952c0 107.008 86.528 194.048 193.536 194.048L849.92 832C946.176 832 1024 753.664 1024 657.408L1024 657.408zM370.688 704.512l-34.816 0 0-75.264L267.776 629.248l0 75.264-34.816 0L232.96 532.48l34.816 0 0 67.584 68.096 0L335.872 532.48l34.816 0L370.688 704.512zM530.944 561.664l-51.2 0 0 143.36L445.44 705.024l0-143.36L394.24 561.664 394.24 532.48l136.704 0L530.944 561.664zM677.888 561.664l-51.2 0 0 143.36-34.816 0 0-143.36-51.2 0L540.672 532.48l136.704 0L677.376 561.664zM826.88 612.352c-4.096 7.168-8.704 12.8-14.848 16.896-6.144 4.096-11.776 6.656-17.92 8.192-8.192 1.536-20.48 2.56-35.84 2.56l-22.528 0 0 65.024-34.816 0L700.928 532.48l55.808 0c20.992 0 34.816 1.024 41.472 2.56 9.728 2.56 17.92 8.192 24.576 16.896 6.656 8.704 10.24 19.968 10.24 33.792C832.512 595.968 830.464 605.184 826.88 612.352zM777.216 562.688c-4.096-1.024-12.288-1.024-25.088-1.024l-16.896 0 0 48.64 18.944 0c13.824 0 23.04-1.024 27.648-2.56s8.192-4.608 10.752-8.704 4.096-8.192 4.096-13.312c0-6.144-2.048-11.264-5.632-15.36C787.456 566.272 782.848 563.712 777.216 562.688z" /></svg>