<?xml version="1.0" standalone="no"?><!DOCTYPE svg PUBLIC "-//W3C//DTD SVG 1.1//EN" "http://www.w3.org/Graphics/SVG/1.1/DTD/svg11.dtd"><svg class="icon" width="200px" height="200.00px" viewBox="0 0 1024 1024" version="1.1" xmlns="http://www.w3.org/2000/svg"><path fill="#333333" d="M792.819 503.536c22.968-14.75 49.622-22.6 77.169-22.6 77.962 0 142.333 62.843 142.333 141.118 0 78.332-64.316 141.122-142.333 141.122-37.607 0-73.428-14.75-100.029-40.824-12.959 34.976-31.133 67.794-53.836 97.502-74.115 96.872-189.477 152.552-311.263 152.552-121.733 0-237.094-55.625-311.21-152.498-49.726-64.949-76.696-143.49-76.696-225.351L16.954 465.133c0-19.016 15.487-34.237 34.45-34.237l706.916 0c18.963 0 34.501 15.222 34.501 34.237L792.821 503.536zM869.988 549.415c-40.138 0-73.428 32.239-73.428 72.64 0 40.351 33.29 72.642 73.428 72.642 40.141 0 73.433-32.237 73.433-72.642C943.421 581.706 910.182 549.415 869.988 549.415zM85.854 499.374l0 95.133c0 65.844 21.439 129.003 60.946 181.628 60.894 81.119 156.87 127.686 258.06 127.686 101.244 0 197.218-46.566 258.115-127.738 39.452-52.625 60.891-115.731 60.891-181.575l0-95.133L85.854 499.375zM190.891 108.622c-12.221-7.744-16.014-24.02-8.167-36.293 7.796-12.221 24.232-15.909 36.558-8.218 4.372 2.739 8.691 5.9 12.8 9.009 8.903 6.847 17.385 14.38 25.181 22.492 20.173 21.069 36.872 47.725 38.243 77.645 0.263 6.109-0.053 12.166-1.055 18.224-5.004 30.342-25.6 54.101-49.462 72.063-13.327 10.062-24.916 23.071-25.177 40.613-0.213 12.538 5.213 25.285 11.481 35.872 5.373 9.009 11.958 17.491 19.017 25.232 5.11 5.584 10.798 11.273 16.75 16.013 11.378 9.114 13.118 25.759 3.898 37.084-5.056 6.216-12.589 9.798-20.596 9.798-6.109 0-11.905-2.055-16.696-5.9-4.058-3.264-8.063-6.952-11.8-10.535-8.219-7.956-15.963-16.488-22.916-25.548-18.173-23.599-32.659-52.361-32.238-82.807 0.526-34.555 19.175-61.367 46.145-81.753 14.118-10.642 30.499-26.811 29.604-46.04-0.474-10.956-5.9-21.49-12.223-30.235-7.005-9.745-16.013-18.542-25.231-26.181-3.213-2.687-6.585-5.267-9.957-7.691-1.369-1-2.737-1.896-4.108-2.844L190.891 108.622zM369.146 108.622c-12.221-7.744-15.961-24.02-8.165-36.293 7.848-12.221 24.283-15.909 36.557-8.218 4.372 2.739 8.691 5.9 12.799 9.009 8.902 6.847 17.385 14.38 25.181 22.492 20.174 21.069 36.871 47.725 38.243 77.645 0.262 6.109-0.054 12.166-1.055 18.224-5.003 30.342-25.6 54.101-49.464 72.063-13.325 10.062-24.914 23.071-25.178 40.613-0.21 12.538 5.216 25.285 11.484 35.872 5.371 9.009 11.958 17.491 19.015 25.232 5.11 5.584 10.799 11.273 16.752 16.013 11.431 9.114 13.115 25.759 3.898 37.084-5.058 6.216-12.589 9.798-20.596 9.798-6.112 0-11.96-2.055-16.7-5.9-4.056-3.264-8.007-6.952-11.747-10.535-8.216-7.956-15.96-16.488-22.914-25.548-18.173-23.548-32.713-52.361-32.237-82.807 0.526-34.555 19.226-61.421 46.196-81.753 14.119-10.642 30.448-26.811 29.606-46.04-0.476-10.956-5.902-21.49-12.222-30.235-7.008-9.745-16.014-18.542-25.231-26.181-3.213-2.687-6.585-5.267-9.956-7.691-1.372-1-2.793-1.896-4.163-2.844L369.146 108.622zM547.455 108.622c-12.274-7.744-16.014-24.073-8.166-36.293 7.795-12.221 24.285-15.909 36.611-8.218 4.373 2.739 8.691 5.9 12.747 9.009 8.901 6.847 17.385 14.38 25.181 22.492 20.173 21.069 36.871 47.725 38.242 77.645 0.262 6.109-0.053 12.166-1.055 18.224-5.004 30.342-25.6 54.101-49.463 72.063-13.328 10.062-24.917 23.071-25.179 40.613-0.21 12.538 5.214 25.285 11.484 35.872 5.371 9.009 11.955 17.491 19.015 25.232 5.11 5.584 10.799 11.273 16.75 16.013 11.378 9.114 13.117 25.759 3.954 37.084-5.059 6.216-12.645 9.798-20.651 9.798-6.057 0-11.957-2.106-16.646-5.9-4.055-3.264-8.059-6.952-11.799-10.535-8.219-7.956-15.959-16.488-22.912-25.548-18.174-23.599-32.714-52.361-32.238-82.756 0.526-34.554 19.174-61.418 46.145-81.752 14.115-10.64 30.443-26.813 29.604-46.039-0.475-10.958-5.9-21.494-12.221-30.236-10.432-14.486-24.652-26.655-39.35-36.716L547.455 108.622z" /></svg>