<?xml version="1.0" standalone="no"?><!DOCTYPE svg PUBLIC "-//W3C//DTD SVG 1.1//EN" "http://www.w3.org/Graphics/SVG/1.1/DTD/svg11.dtd"><svg class="icon" width="200px" height="200.00px" viewBox="0 0 1024 1024" version="1.1" xmlns="http://www.w3.org/2000/svg"><path fill="#333333" d="M512 869.674667c-14.634667 0-26.282667-11.392-26.282667-25.258667 0-13.738667 11.690667-25.173333 26.282667-25.173333 14.592 0 26.24 11.434667 26.24 25.173333C538.24 858.282667 526.634667 869.674667 512 869.674667L512 869.674667zM512 903.082667c32.896 0 59.733333-26.112 59.733333-58.666667 0-32.426667-26.837333-58.666667-59.733333-58.666667s-59.733333 26.197333-59.733333 58.666667C452.266667 876.970667 479.104 903.082667 512 903.082667L512 903.082667zM682.581333 42.666667 341.418667 42.666667C270.805333 42.666667 213.333333 99.285333 213.333333 169.386667L213.333333 854.613333C213.333333 924.757333 270.805333 981.333333 341.418667 981.333333l341.162667 0C753.152 981.333333 810.666667 924.757333 810.666667 854.613333L810.666667 169.386667C810.666667 99.285333 753.152 42.666667 682.581333 42.666667zM341.418667 81.109333l341.162667 0c49.92 0 90.24 39.68 90.24 88.234667l0 6.357333L251.178667 175.701333 251.178667 169.386667C251.178667 120.789333 291.498667 81.109333 341.418667 81.109333zM772.821333 214.869333l0 503.253333L251.178667 718.122667 251.178667 214.869333 772.821333 214.869333zM682.581333 942.890667 341.418667 942.890667c-49.92 0-90.24-39.68-90.24-88.234667l0-97.365333 521.642667 0 0 97.365333C772.821333 903.210667 732.501333 942.890667 682.581333 942.890667z" /></svg>