<?xml version="1.0" standalone="no"?><!DOCTYPE svg PUBLIC "-//W3C//DTD SVG 1.1//EN" "http://www.w3.org/Graphics/SVG/1.1/DTD/svg11.dtd"><svg class="icon" width="200px" height="200.00px" viewBox="0 0 1024 1024" version="1.1" xmlns="http://www.w3.org/2000/svg"><path fill="#333333" d="M347.710748 456.81412 212.523813 456.81412c-10.663874 0-19.320021 8.644891-19.320021 19.308765l0 135.176702c0 10.662851 8.656147 19.306718 19.320021 19.306718l135.187959 0c10.662851 0 19.307741-8.643867 19.307741-19.306718L367.019513 476.122885C367.019513 465.459011 358.374622 456.81412 347.710748 456.81412zM347.710748 688.539762 212.523813 688.539762c-10.663874 0-19.320021 8.65717-19.320021 19.320021l0 135.175679c0 10.664897 8.656147 19.308765 19.320021 19.308765l135.187959 0c10.662851 0 19.307741-8.643867 19.307741-19.308765L367.019513 707.859783C367.019513 697.196932 358.374622 688.539762 347.710748 688.539762zM579.473229 225.082338 444.285271 225.082338c-10.676154 0-19.318998 8.650007-19.318998 19.313881l0 135.176702c0 10.661827 8.642844 19.306718 19.318998 19.306718l135.187959 0c10.663874 0 19.307741-8.644891 19.307741-19.306718L598.780971 244.396219C598.781994 233.732345 590.137103 225.082338 579.473229 225.082338zM579.473229 456.81412 444.285271 456.81412c-10.676154 0-19.318998 8.644891-19.318998 19.308765l0 135.176702c0 10.662851 8.642844 19.306718 19.318998 19.306718l135.187959 0c10.663874 0 19.307741-8.643867 19.307741-19.306718L598.780971 476.122885C598.781994 465.459011 590.137103 456.81412 579.473229 456.81412zM579.473229 688.539762 444.285271 688.539762c-10.676154 0-19.318998 8.65717-19.318998 19.320021l0 135.175679c0 10.664897 8.642844 19.308765 19.318998 19.308765l135.187959 0c10.663874 0 19.307741-8.643867 19.307741-19.308765L598.780971 707.859783C598.781994 697.196932 590.137103 688.539762 579.473229 688.539762zM811.237757 225.082338 676.036495 225.082338c-10.663874 0-19.307741 8.650007-19.307741 19.313881l0 135.176702c0 10.661827 8.643867 19.306718 19.307741 19.306718l135.201262 0c10.662851 0 19.306718-8.644891 19.306718-19.306718L830.544475 244.396219C830.544475 233.732345 821.900607 225.082338 811.237757 225.082338zM811.237757 456.81412 676.036495 456.81412c-10.663874 0-19.307741 8.644891-19.307741 19.308765l0 135.176702c0 10.662851 8.643867 19.306718 19.307741 19.306718l135.201262 0c10.662851 0 19.306718-8.643867 19.306718-19.306718L830.544475 476.122885C830.544475 465.459011 821.900607 456.81412 811.237757 456.81412zM811.237757 688.539762 676.036495 688.539762c-10.663874 0-19.307741 8.65717-19.307741 19.320021l0 135.175679c0 10.664897 8.643867 19.308765 19.307741 19.308765l135.201262 0c10.662851 0 19.306718-8.643867 19.306718-19.308765L830.544475 707.859783C830.544475 697.196932 821.900607 688.539762 811.237757 688.539762zM347.710748 405.184229 212.523813 405.184229c-14.129812 0-25.624611-11.489682-25.624611-25.611308L186.899202 244.396219c0-14.125719 11.494799-25.617447 25.624611-25.617447l135.187959 0c14.122649 0 25.612331 11.491729 25.612331 25.617447l0 135.176702C373.323079 393.694547 361.83442 405.184229 347.710748 405.184229zM212.523813 231.386928c-7.176446 0-13.015432 5.835915-13.015432 13.009292l0 135.176702c0 7.169283 5.838985 13.003152 13.015432 13.003152l135.187959 0c7.170307 0 13.004175-5.832845 13.004175-13.003152L360.715947 244.396219c0-7.173376-5.833869-13.009292-13.004175-13.009292L212.523813 231.386928z" /></svg>