<?xml version="1.0" standalone="no"?><!DOCTYPE svg PUBLIC "-//W3C//DTD SVG 1.1//EN" "http://www.w3.org/Graphics/SVG/1.1/DTD/svg11.dtd"><svg class="icon" width="200px" height="200.00px" viewBox="0 0 1024 1024" version="1.1" xmlns="http://www.w3.org/2000/svg"><path fill="#333333" d="M964.170356 899.755278 705.680141 641.260969c46.051849-61.421908 70.974471-135.732357 70.974471-213.868949 0-95.491865-37.19718-185.259354-104.721063-252.761748C604.430132 107.126856 514.662643 69.947072 419.188174 69.947072c-95.491865 0-185.259354 37.179784-252.78426 104.683201C27.034726 314.047556 27.034726 540.828582 166.392658 680.186514 233.917564 747.688907 323.69631 784.868691 419.188174 784.868691c86.8613 0 168.991856-30.783097 233.937007-87.174432l256.556167 256.55105L964.170356 899.755278zM419.176918 726.419488c-79.874165 0-154.975631-31.102369-211.462133-87.561241-116.567879-116.561739-116.561739-306.256102 0.022513-422.867984 56.480362-56.463989 131.565455-87.566358 211.43962-87.566358 79.862909 0 154.948001 31.102369 211.411991 87.566358 56.486502 56.463989 87.593987 131.549082 87.593987 211.411991 0 79.874165-31.107485 154.964374-87.593987 211.455993C574.124919 695.317119 499.039827 726.419488 419.176918 726.419488z" /></svg>